<?xml version="1.0" encoding="utf-8"?>
<!-- Generator: Adobe Illustrator 27.0.0, SVG Export Plug-In . SVG Version: 6.00 Build 0)  -->
<svg version="1.1" id="Layer_1" xmlns="http://www.w3.org/2000/svg" xmlns:xlink="http://www.w3.org/1999/xlink" x="0px" y="0px"
	 viewBox="0 0 134 69.43" style="enable-background:new 0 0 134 69.43;" xml:space="preserve">
<style type="text/css">
	.st0{fill:#FFFFFF;}
	
		.st1{clip-path:url(#SVGID_00000010283892134981634070000010233259577659589782_);fill:url(#SVGID_00000056388833702503877540000008151229963281726643_);}
	
		.st2{clip-path:url(#SVGID_00000111171444503814198480000015235516906984505526_);fill:url(#SVGID_00000100353764581691141690000009689856320703877017_);}
	.st3{fill:#8DC63F;}
	.st4{fill:#056F3A;}
	.st5{fill:#FEFEFE;}
	
		.st6{clip-path:url(#SVGID_00000047739041335350403590000003319126817688241316_);fill:url(#SVGID_00000111153400671124030520000015294063641873396665_);}
</style>
<g>
	<g>
		<g>
			<defs>
				<path id="SVGID_1_" d="M6.63,34.61c0,16.48,26.42,29.88,59.24,30.18l42.45-8.18c11.73-5.5,19.05-13.32,19.05-22
					c0-16.67-27.03-30.19-60.37-30.19C33.66,4.42,6.63,17.94,6.63,34.61"/>
			</defs>
			<clipPath id="SVGID_00000013882923596324384820000013373741960012830650_">
				<use xlink:href="#SVGID_1_"  style="overflow:visible;"/>
			</clipPath>
		</g>
		<g>
			<defs>
				<path id="SVGID_00000019657766368166589550000008536609781813396656_" d="M9.65,34.56v0.09C9.7,50.27,34.71,62.96,65.8,63.28
					h0.01l42.53-8.79c9.9-5.14,15.99-12.13,16.02-19.83v-0.09C124.3,18.75,98.64,5.93,67,5.93C35.36,5.93,9.7,18.75,9.65,34.56"/>
			</defs>
			<clipPath id="SVGID_00000062164819510284343270000005307085122323151257_">
				<use xlink:href="#SVGID_00000019657766368166589550000008536609781813396656_"  style="overflow:visible;"/>
			</clipPath>
		</g>
		<g>
			<defs>
				<path id="SVGID_00000028309092023504005670000010784135296922480295_" d="M23.37,40.87c3.05,2.9,7.29,5.57,19.03,8.6
					c10.93,2.83,14.29,2.91,19.75,7.24c2.65,2.1,3.79,4.89,3.72,8.09c0,0.19,16.64,0.48,27.54-2.49c11.83-3.23,14.9-5.55,14.91-5.67
					c0.26-6.03-1.31-11.09-4.43-14.85l-0.09-0.17c-7.27-8.74-32.08-4.14-43.08-2.52c-11.44,1.7-22.89,3.32-31.64-2.19
					c-14.74-9.28-5.68-18.07,6.3-23.59c-0.01,0-0.01-0.02,0-0.04c0-0.02,0.01-0.04,0-0.04C19.55,18.07,10.92,29.02,23.37,40.87"/>
			</defs>
			<clipPath id="SVGID_00000116222507940457751140000007604022419660492952_">
				<use xlink:href="#SVGID_00000028309092023504005670000010784135296922480295_"  style="overflow:visible;"/>
			</clipPath>
		</g>
	</g>
	<g>
		<g>
			<path class="st0" d="M67,67.97c-16.59,0-32.24-3.26-44.06-9.17C16.8,55.74,12,52.12,8.69,48.06c-1.67-2.05-2.95-4.21-3.81-6.42
				C4,39.39,3.56,37.06,3.56,34.72c0-2.34,0.44-4.67,1.32-6.92c0.86-2.21,2.14-4.37,3.81-6.42C12,17.32,16.8,13.7,22.94,10.63
				C34.76,4.72,50.41,1.46,67,1.46c16.59,0,32.24,3.26,44.06,9.17c6.14,3.07,10.94,6.69,14.25,10.75c1.67,2.05,2.95,4.21,3.81,6.42
				c0.88,2.25,1.32,4.58,1.32,6.93c0,2.34-0.44,4.67-1.32,6.93c-0.86,2.21-2.14,4.37-3.81,6.42c-3.31,4.06-8.11,7.68-14.25,10.75
				C99.24,64.72,83.59,67.97,67,67.97"/>
			<path class="st0" d="M128.97,34.72c0,17.52-27.71,31.71-61.9,31.71c-34.19,0-61.9-14.2-61.9-31.71S32.89,3.01,67.07,3.01
				C101.26,3.01,128.97,17.21,128.97,34.72"/>
			<path class="st0" d="M67,66.43c-16.36,0-31.76-3.2-43.37-9C11.68,51.45,5.1,43.39,5.1,34.72c0-8.67,6.58-16.74,18.53-22.71
				C35.24,6.2,50.64,3,67,3c16.36,0,31.76,3.2,43.37,9c11.95,5.97,18.53,14.04,18.53,22.71c0,8.67-6.58,16.74-18.53,22.71
				C98.76,63.23,83.36,66.43,67,66.43 M67,6.06c-15.89,0-30.81,3.08-42,8.68C14.14,20.17,8.16,27.26,8.16,34.72
				c0,7.45,5.98,14.55,16.84,19.98c11.19,5.6,26.11,8.68,42,8.68c15.89,0,30.81-3.08,42-8.68c10.86-5.43,16.84-12.52,16.84-19.98
				c0-7.45-5.98-14.55-16.84-19.98C97.81,9.14,82.89,6.06,67,6.06"/>
		</g>
		<g>
			<defs>
				<path id="SVGID_00000029764084411955046900000006414550257232696726_" d="M6.63,34.61c0,16.48,26.42,29.88,59.24,30.18
					l42.45-8.18c11.73-5.5,19.05-13.32,19.05-22c0-16.67-27.03-30.19-60.37-30.19C33.66,4.42,6.63,17.94,6.63,34.61"/>
			</defs>
			<clipPath id="SVGID_00000179646962705916508960000008041179439224296578_">
				<use xlink:href="#SVGID_00000029764084411955046900000006414550257232696726_"  style="overflow:visible;"/>
			</clipPath>
			
				<linearGradient id="SVGID_00000110433829317122607930000002365822604558101939_" gradientUnits="userSpaceOnUse" x1="-3474.5315" y1="2560.189" x2="-3474.4663" y2="2560.189" gradientTransform="matrix(-380.389 -293.9361 293.9361 -380.389 -2074088.875 -47349.418)">
				<stop  offset="0" style="stop-color:#8BC540"/>
				<stop  offset="0.1981" style="stop-color:#88C141"/>
				<stop  offset="0.3568" style="stop-color:#7DB841"/>
				<stop  offset="0.5018" style="stop-color:#6BAC42"/>
				<stop  offset="0.6377" style="stop-color:#529C43"/>
				<stop  offset="0.7408" style="stop-color:#348F43"/>
				<stop  offset="0.9155" style="stop-color:#076E3A"/>
				<stop  offset="1" style="stop-color:#076E3A"/>
			</linearGradient>
			
				<polygon style="clip-path:url(#SVGID_00000179646962705916508960000008041179439224296578_);fill:url(#SVGID_00000110433829317122607930000002365822604558101939_);" points="
				156.57,26.99 51.77,-53.99 -22.58,42.22 82.23,123.2 			"/>
		</g>
		<g>
			<defs>
				<path id="SVGID_00000034070686321161186180000011148128241366115969_" d="M9.65,34.56v0.09C9.7,50.27,34.71,62.96,65.8,63.28
					h0.01l42.53-8.79c9.9-5.14,15.99-12.13,16.02-19.83v-0.09C124.3,18.75,98.64,5.93,67,5.93C35.36,5.93,9.7,18.75,9.65,34.56"/>
			</defs>
			<clipPath id="SVGID_00000169555127898007240910000008812942872546617256_">
				<use xlink:href="#SVGID_00000034070686321161186180000011148128241366115969_"  style="overflow:visible;"/>
			</clipPath>
			
				<linearGradient id="SVGID_00000137819418286191955140000006097893632933065873_" gradientUnits="userSpaceOnUse" x1="-3474.5312" y1="2562.7781" x2="-3474.4661" y2="2562.7781" gradientTransform="matrix(1754.2869 0 0 1416.5752 6095334.5 -3630333.25)">
				<stop  offset="0" style="stop-color:#8BC540"/>
				<stop  offset="0.1981" style="stop-color:#88C141"/>
				<stop  offset="0.3568" style="stop-color:#7DB841"/>
				<stop  offset="0.5018" style="stop-color:#6BAC42"/>
				<stop  offset="0.6377" style="stop-color:#529C43"/>
				<stop  offset="0.7408" style="stop-color:#348F43"/>
				<stop  offset="0.9155" style="stop-color:#076E3A"/>
				<stop  offset="1" style="stop-color:#076E3A"/>
			</linearGradient>
			
				<rect x="9.65" y="5.93" style="clip-path:url(#SVGID_00000169555127898007240910000008812942872546617256_);fill:url(#SVGID_00000137819418286191955140000006097893632933065873_);" width="114.7" height="57.34"/>
		</g>
		<path class="st3" d="M61.45,7.74c-12.16,0.59-21.52,3.27-27.88,6.97c-1.09,0.63-2.09,1.3-3,1.99c-4.34,3.28-6.83,6.07-7.04,9.77
			v0.88c0.09,0.85,0.64,1.67,0.69,2.52c0.95,1.61,2.19,2.85,4.11,3.43c1.26,0.38,3.02,0.59,5.42,0.37
			c38.72-3.54,42.07-11.18,66.83-10.8c7.86,0.11,13.85,1.02,19.17,2.19c-0.3-0.42-0.62-0.83-0.97-1.23
			c-1.59-1.87-5.02-3.83-7.49-5.45c-8.91-5.86-23.07-9.89-39.31-10.63H61.45z"/>
		<g>
			<polygon class="st4" points="105.65,21.56 105.65,19.37 104.87,19.37 104.87,18.93 106.97,18.93 106.97,19.37 106.19,19.37 
				106.19,21.56 			"/>
			<polygon class="st4" points="107.3,21.56 107.3,18.93 108.1,18.93 108.58,20.72 109.05,18.93 109.85,18.93 109.85,21.56 
				109.35,21.56 109.35,19.49 108.83,21.56 108.32,21.56 107.8,19.49 107.8,21.56 			"/>
			<path class="st5" d="M40.41,32.64l0.82-6.49c0.22-1.7,0.52-3.87,0.9-6.14h-0.06c-0.74,2.03-1.58,4.2-2.32,5.93l-2.77,6.44h-2.24
				l-0.48-6.37c-0.12-1.73-0.22-3.9-0.3-6h-0.04c-0.38,2.08-0.78,4.46-1.12,6.14l-1.34,6.49h-2.65l3.39-15.73h3.87l0.42,6
				c0.08,1.47,0.22,3.24,0.24,4.99h0.08c0.52-1.75,1.24-3.6,1.82-5.02l2.51-5.97h3.91l-1.82,15.73H40.41z"/>
			<path class="st5" d="M53.66,31.98c-1.14,0.68-2.57,0.91-3.65,0.91c-2.8,0-4.25-1.84-4.25-4.83c0-3.48,2.16-7.1,5.71-7.1
				c1.99,0,3.41,1.31,3.41,3.43c0,2.89-2.42,3.94-6.35,3.83c0,0.33,0.1,0.84,0.3,1.17c0.38,0.58,1.04,0.88,1.88,0.88
				c1.06,0,1.96-0.28,2.75-0.72L53.66,31.98z M52.17,24.37c0-0.56-0.4-0.96-1.06-0.96c-1.34,0-2.1,1.31-2.3,2.36
				c2.24,0.02,3.36-0.32,3.36-1.38V24.37z"/>
			<path class="st5" d="M61.97,32.64c0.02-0.65,0.08-1.45,0.12-2.26h-0.04c-0.92,1.89-2.18,2.52-3.32,2.52
				c-1.76,0-2.96-1.59-2.96-3.97c0-3.85,2.2-7.96,7.01-7.96c1.18,0,2.42,0.26,3.23,0.56l-0.99,5.97c-0.24,1.47-0.44,3.71-0.4,5.14
				H61.97z M62.75,23.6c-0.22-0.05-0.46-0.09-0.76-0.09c-1.86,0-3.22,2.66-3.22,4.78c0,1.12,0.38,1.89,1.18,1.89
				c0.86,0,1.96-1.14,2.4-3.94L62.75,23.6z"/>
			<path class="st5" d="M78.08,16.06L76.1,28.2c-0.22,1.47-0.4,3.08-0.46,4.43h-2.62l0.14-1.84h-0.04c-0.86,1.52-2.06,2.1-3.23,2.1
				c-1.66,0-3.03-1.54-3.03-4.29c0-3.97,2.47-7.63,6.17-7.63c0.4,0,0.92,0.09,1.32,0.28l0.86-5.18H78.08z M73.95,23.93
				c-0.24-0.24-0.66-0.4-1.14-0.4c-1.72,0-2.95,2.31-2.95,4.5c0,1.38,0.5,2.15,1.34,2.15c0.84,0,1.87-1.03,2.22-3.2L73.95,23.93z"/>
			<path class="st5" d="M82.29,32.89c-2.51,0-4.17-1.89-4.17-4.71c0-3.95,2.37-7.21,5.85-7.21c2.64,0,4.17,2.1,4.17,4.72
				c0,4.16-2.47,7.21-5.83,7.21H82.29z M82.67,30.33c1.56,0,2.47-2.68,2.47-4.62c0-1.07-0.4-2.17-1.54-2.17
				c-1.66,0-2.51,2.8-2.51,4.58c0,1.33,0.58,2.22,1.56,2.22H82.67z"/>
			<path class="st5" d="M92.51,21.22l0.02,4.85c0.02,1.28-0.02,2.36-0.08,3.62h0.04c0.34-1.21,0.78-2.36,1.18-3.5l1.94-4.97h2.34
				l0.24,4.81c0.06,1.35,0.1,2.45,0.04,3.66h0.06c0.32-1.26,0.66-2.38,1.06-3.71l1.68-4.76h2.91l-4.77,11.41h-2.71l-0.28-3.97
				c-0.08-1.19-0.08-2.29-0.08-3.64h-0.06c-0.52,1.61-0.74,2.45-1.16,3.48l-1.66,4.13h-2.7l-0.92-11.41H92.51z"/>
		</g>
		<g>
			<defs>
				<path id="SVGID_00000178921170088014118760000007437900013933022375_" d="M23.37,40.87c3.05,2.9,7.29,5.57,19.03,8.6
					c10.93,2.83,14.29,2.91,19.75,7.24c2.65,2.1,3.79,4.89,3.72,8.09c0,0.19,16.64,0.48,27.54-2.49c11.83-3.23,14.9-5.55,14.91-5.67
					c0.26-6.03-1.31-11.09-4.43-14.85l-0.09-0.17c-7.27-8.74-32.08-4.14-43.08-2.52c-11.44,1.7-22.89,3.32-31.64-2.19
					c-14.74-9.28-5.68-18.07,6.3-23.59c-0.01,0-0.01-0.02,0-0.04c0-0.02,0.01-0.04,0-0.04C19.55,18.07,10.92,29.02,23.37,40.87"/>
			</defs>
			<clipPath id="SVGID_00000115497213613082512720000007208782641518945161_">
				<use xlink:href="#SVGID_00000178921170088014118760000007437900013933022375_"  style="overflow:visible;"/>
			</clipPath>
			
				<linearGradient id="SVGID_00000078040700024394358740000006109613110576570281_" gradientUnits="userSpaceOnUse" x1="-3475.5254" y1="2561.0115" x2="-3475.46" y2="2561.0115" gradientTransform="matrix(-804.1503 -392.1495 392.1495 -804.1503 -3799079.5 696554.4375)">
				<stop  offset="0" style="stop-color:#FFFFFF"/>
				<stop  offset="5.102040e-03" style="stop-color:#FFFFFF"/>
				<stop  offset="0.0901" style="stop-color:#F9FBF5"/>
				<stop  offset="0.2276" style="stop-color:#EDF5E2"/>
				<stop  offset="0.4005" style="stop-color:#DBEBC5"/>
				<stop  offset="0.6021" style="stop-color:#C3DE9C"/>
				<stop  offset="0.8249" style="stop-color:#A5CF6A"/>
				<stop  offset="1" style="stop-color:#8BC540"/>
			</linearGradient>
			
				<polygon style="clip-path:url(#SVGID_00000115497213613082512720000007208782641518945161_);fill:url(#SVGID_00000078040700024394358740000006109613110576570281_);" points="
				129.09,23.23 29.69,-25.24 -9.58,55.28 89.82,103.76 			"/>
		</g>
		<g>
			<path class="st4" d="M67.16,43.78l0.46,4.99c0.1,1.4,0.2,2.26,0.26,3.1h0.06c0.26-0.82,0.56-1.68,1.1-3.08l1.97-5.02h3.23
				l-5.45,11.41h-2.95l-1.64-11.41H67.16z"/>
			<path class="st4" d="M79.95,55.19c0.02-0.65,0.08-1.45,0.12-2.26h-0.04c-0.92,1.89-2.18,2.52-3.33,2.52
				c-1.76,0-2.97-1.59-2.97-3.97c0-3.85,2.2-7.96,7.01-7.96c1.19,0,2.43,0.26,3.23,0.56l-0.98,5.98c-0.24,1.47-0.44,3.71-0.4,5.13
				H79.95z M80.73,46.16c-0.22-0.05-0.46-0.09-0.76-0.09c-1.86,0-3.22,2.66-3.22,4.79c0,1.12,0.38,1.89,1.18,1.89
				c0.86,0,1.96-1.15,2.41-3.95L80.73,46.16z"/>
			<polygon class="st4" points="84.57,55.19 87.3,38.62 90.18,38.62 87.46,55.19 			"/>
			<path class="st4" d="M98.08,54.54c-1.14,0.68-2.56,0.91-3.65,0.91c-2.81,0-4.25-1.85-4.25-4.83c0-3.47,2.17-7.09,5.71-7.09
				c1.98,0,3.41,1.31,3.41,3.43c0,2.89-2.43,3.94-6.35,3.83c0,0.32,0.1,0.84,0.3,1.16c0.38,0.58,1.04,0.89,1.89,0.89
				c1.06,0,1.96-0.28,2.74-0.72L98.08,54.54z M96.6,46.93c0-0.56-0.4-0.96-1.06-0.96c-1.34,0-2.1,1.31-2.3,2.36
				c2.25,0.02,3.37-0.33,3.37-1.38V46.93z"/>
		</g>
	</g>
	<g>
		<g>
			<defs>
				<path id="SVGID_00000079452886260591787790000002655885994429268879_" d="M6.63,34.61c0,16.48,26.42,29.88,59.24,30.18
					l42.45-8.18c11.73-5.5,19.05-13.32,19.05-22c0-16.67-27.03-30.19-60.37-30.19C33.66,4.42,6.63,17.94,6.63,34.61"/>
			</defs>
			<clipPath id="SVGID_00000088109465616896850400000003070389435345122953_">
				<use xlink:href="#SVGID_00000079452886260591787790000002655885994429268879_"  style="overflow:visible;"/>
			</clipPath>
		</g>
		<g>
			<defs>
				<path id="SVGID_00000147203875102513461070000009571373267023008128_" d="M9.65,34.56v0.09C9.7,50.27,34.71,62.96,65.8,63.28
					h0.01l42.53-8.79c9.9-5.14,15.99-12.13,16.02-19.83v-0.09C124.3,18.75,98.64,5.93,67,5.93C35.36,5.93,9.7,18.75,9.65,34.56"/>
			</defs>
			<clipPath id="SVGID_00000003795407660968624880000007997075051287940244_">
				<use xlink:href="#SVGID_00000147203875102513461070000009571373267023008128_"  style="overflow:visible;"/>
			</clipPath>
		</g>
		<g>
			<defs>
				<path id="SVGID_00000026152079431659541010000010641139900398774921_" d="M23.37,40.87c3.05,2.9,7.29,5.57,19.03,8.6
					c10.93,2.83,14.29,2.91,19.75,7.24c2.65,2.1,3.79,4.89,3.72,8.09c0,0.19,16.64,0.48,27.54-2.49c11.83-3.23,14.9-5.55,14.91-5.67
					c0.26-6.03-1.31-11.09-4.43-14.85l-0.09-0.17c-7.27-8.74-32.08-4.14-43.08-2.52c-11.44,1.7-22.89,3.32-31.64-2.19
					c-14.74-9.28-5.68-18.07,6.3-23.59c-0.01,0-0.01-0.02,0-0.04c0-0.02,0.01-0.04,0-0.04C19.55,18.07,10.92,29.02,23.37,40.87"/>
			</defs>
			<clipPath id="SVGID_00000142856653951353340520000002603654584629012910_">
				<use xlink:href="#SVGID_00000026152079431659541010000010641139900398774921_"  style="overflow:visible;"/>
			</clipPath>
		</g>
	</g>
</g>
</svg>
